<svg width="18" height="20" viewBox="0 0 18 20" fill="none" xmlns="http://www.w3.org/2000/svg">
<path d="M8.77164 8.40009C7.82281 8.40009 6.87393 8.23265 5.97161 7.90702C5.60882 7.77679 5.42277 7.37679 5.553 7.014C5.69254 6.65121 6.09254 6.46516 6.45533 6.59539C7.95304 7.13493 9.59955 7.13493 11.0972 6.59539C11.46 6.46516 11.86 6.65121 11.9902 7.014C12.1205 7.37679 11.9344 7.77679 11.5716 7.90702C10.6693 8.23265 9.72048 8.40009 8.77164 8.40009Z" fill="white"/>
<path d="M15.3488 20C14.8744 20 14.3535 19.8605 13.8512 19.5721L9.31162 17.0512C9.04185 16.9023 8.51162 16.9023 8.24185 17.0512L3.70233 19.5721C2.7814 20.0837 1.84186 20.1395 1.12558 19.7116C0.409302 19.293 0 18.4465 0 17.3953V4.28837C0 1.92558 1.92558 0 4.28837 0H13.2651C15.6279 0 17.5535 1.92558 17.5535 4.28837V17.3953C17.5535 18.4465 17.1442 19.293 16.4279 19.7116C16.1023 19.907 15.7302 20 15.3488 20ZM8.77208 15.5442C9.20929 15.5442 9.6372 15.6372 9.98139 15.8326L14.5209 18.3535C14.9953 18.6233 15.4325 18.6791 15.7116 18.5116C15.9907 18.3442 16.1488 17.9442 16.1488 17.3953V4.28837C16.1488 2.69767 14.8465 1.39535 13.2558 1.39535H4.28837C2.69767 1.39535 1.39535 2.69767 1.39535 4.28837V17.3953C1.39535 17.9442 1.55349 18.3535 1.83256 18.5116C2.11163 18.6698 2.53953 18.6233 3.02326 18.3535L7.56278 15.8326C7.90697 15.6372 8.33488 15.5442 8.77208 15.5442Z" fill="white"/>
<path d="M15.3488 20C14.8744 20 14.3535 19.8605 13.8512 19.5721L9.31162 17.0512C9.04185 16.9023 8.51162 16.9023 8.24185 17.0512L3.70233 19.5721C2.7814 20.0837 1.84186 20.1395 1.12558 19.7116C0.409302 19.293 0 18.4465 0 17.3953V4.28837C0 1.92558 1.92558 0 4.28837 0H13.2651C15.6279 0 17.5535 1.92558 17.5535 4.28837V17.3953C17.5535 18.4465 17.1442 19.293 16.4279 19.7116C16.1023 19.907 15.7302 20 15.3488 20ZM8.77208 15.5442C9.20929 15.5442 9.6372 15.6372 9.98139 15.8326L14.5209 18.3535C14.9953 18.6233 15.4325 18.6791 15.7116 18.5116C15.9907 18.3442 16.1488 17.9442 16.1488 17.3953V4.28837C16.1488 2.69767 14.8465 1.39535 13.2558 1.39535H4.28837C2.69767 1.39535 1.39535 2.69767 1.39535 4.28837V17.3953C1.39535 17.9442 1.55349 18.3535 1.83256 18.5116C2.11163 18.6698 2.53953 18.6233 3.02326 18.3535L7.56278 15.8326C7.90697 15.6372 8.33488 15.5442 8.77208 15.5442Z" fill="white"/>
</svg>
