<svg width="26" height="26" viewBox="0 0 26 26" fill="none" xmlns="http://www.w3.org/2000/svg">
<path d="M20.0962 24.9353C19.7212 24.9353 19.3461 24.8385 19.0073 24.6328L14.1558 21.7533C13.6476 21.7412 13.1395 21.705 12.6556 21.6324C12.3289 21.584 12.0506 21.3661 11.9296 21.0515C11.8087 20.737 11.8691 20.3982 12.0869 20.1441C12.8854 19.2125 13.2968 18.0995 13.2968 16.9138C13.2968 13.9859 10.7198 11.6025 7.54991 11.6025C6.36425 11.6025 5.22696 11.9293 4.27117 12.5584C4.005 12.7278 3.67834 12.752 3.38797 12.6189C3.1097 12.4858 2.90404 12.2195 2.86774 11.905C2.83145 11.5662 2.80725 11.2276 2.80725 10.8767C2.80725 4.87573 8.00966 0 14.3978 0C20.7858 0 25.9882 4.87573 25.9882 10.8767C25.9882 14.1675 24.4638 17.1921 21.7779 19.2609L22.1893 22.5519C22.2861 23.3746 21.9231 24.1489 21.2335 24.5965C20.8947 24.8143 20.4955 24.9353 20.0962 24.9353ZM14.3857 19.9264C14.555 19.9143 14.7244 19.9628 14.8696 20.0596L19.9389 23.0721C20.072 23.1568 20.1809 23.1205 20.2535 23.0721C20.314 23.0358 20.4108 22.939 20.3866 22.7697L19.9147 18.9464C19.8784 18.6076 20.0236 18.2811 20.2898 18.0875C22.7579 16.3574 24.1735 13.7198 24.1735 10.8524C24.1735 5.8557 19.7937 1.79057 14.3978 1.79057C9.20743 1.79057 4.9487 5.56539 4.63413 10.3081C5.54153 9.9572 6.52153 9.76359 7.53781 9.76359C11.7119 9.76359 15.0995 12.9575 15.0995 16.8896C15.1116 17.9543 14.8575 18.9827 14.3857 19.9264Z" fill="white"/>
<path d="M4.01675 26C3.70218 26 3.39971 25.9153 3.12145 25.7338C2.57701 25.383 2.28665 24.778 2.35924 24.1368L2.60121 22.2736C0.96789 20.9428 0 18.9707 0 16.9018C0 14.5426 1.23407 12.3406 3.30294 11.0219C4.5491 10.2113 6.02512 9.77579 7.56164 9.77579C11.7357 9.77579 15.1233 12.9698 15.1233 16.9018C15.1233 18.4989 14.5426 20.0717 13.4779 21.3178C12.1108 22.9753 10.0661 23.9432 7.81571 24.0158L4.86365 25.7701C4.59748 25.9274 4.30711 26 4.01675 26ZM7.54955 11.5905C6.36388 11.5905 5.2266 11.9172 4.2708 12.5463C2.72218 13.5384 1.8027 15.1596 1.8027 16.9018C1.8027 18.5835 2.62541 20.1201 4.07725 21.1122C4.35552 21.3057 4.50069 21.6324 4.46439 21.9712L4.19822 24.04L7.0898 22.322C7.23498 22.2373 7.39226 22.1889 7.54955 22.1889C9.32804 22.1889 11.0098 21.4267 12.0745 20.1322C12.873 19.1885 13.2964 18.0754 13.2964 16.8897C13.2964 13.974 10.7194 11.5905 7.54955 11.5905Z" fill="white"/>
</svg>
