<svg width="26" height="26" viewBox="0 0 26 26" fill="none" xmlns="http://www.w3.org/2000/svg">
<path d="M12.3954 24.7908C5.56281 24.7908 0 19.228 0 12.3954C0 5.56281 5.56281 0 12.3954 0C19.228 0 24.7908 5.56281 24.7908 12.3954C24.7908 19.228 19.228 24.7908 12.3954 24.7908ZM12.3954 1.81396C6.55445 1.81396 1.81396 6.56654 1.81396 12.3954C1.81396 18.2243 6.55445 22.9768 12.3954 22.9768C18.2364 22.9768 22.9768 18.2243 22.9768 12.3954C22.9768 6.56654 18.2364 1.81396 12.3954 1.81396Z" fill="#C5C5C5"/>
<path d="M25.0937 26C24.8639 26 24.6341 25.9153 24.4527 25.734L22.0341 23.3153C21.6834 22.9646 21.6834 22.3842 22.0341 22.0335C22.3848 21.6828 22.9653 21.6828 23.316 22.0335L25.7346 24.4521C26.0853 24.8028 26.0853 25.3833 25.7346 25.734C25.5532 25.9153 25.3234 26 25.0937 26Z" fill="#C5C5C5"/>
</svg>
