<svg width="27" height="26" viewBox="0 0 27 26" fill="none" xmlns="http://www.w3.org/2000/svg">
<path d="M13.2293 21.3129C12.7249 21.3129 12.3066 20.8946 12.3066 20.3902V16.6997C12.3066 16.1953 12.7249 15.777 13.2293 15.777C13.7337 15.777 14.1519 16.1953 14.1519 16.6997V20.3902C14.1519 20.8946 13.7337 21.3129 13.2293 21.3129Z" fill="#F35383"/>
<path d="M20.1194 26H6.34141C4.10247 26 2.06037 24.2777 1.69131 22.0757L0.0551656 12.2711C-0.215475 10.7457 0.534937 8.78969 1.75282 7.81784L10.278 0.99032C11.9264 -0.338279 14.5221 -0.325977 16.1828 1.00262L24.708 7.81784C25.9136 8.78969 26.6517 10.7457 26.4057 12.2711L24.7695 22.0634C24.4005 24.2408 22.3091 26 20.1194 26ZM13.2181 1.85145C12.5661 1.85145 11.9141 2.04828 11.4343 2.42963L2.90919 9.26946C2.22029 9.82304 1.72822 11.1025 1.87584 11.9759L3.51198 21.7682C3.73342 23.0599 5.02511 24.1547 6.34141 24.1547H20.1194C21.4357 24.1547 22.7274 23.0599 22.9488 21.7559L24.585 11.9636C24.7203 11.1025 24.2282 9.79844 23.5516 9.25716L15.0265 2.44194C14.5344 2.04828 13.8701 1.85145 13.2181 1.85145Z" fill="#F35383"/>
</svg>
