<svg width="29" height="26" viewBox="0 0 29 26" fill="none" xmlns="http://www.w3.org/2000/svg">
<path d="M13.6972 3.85353L14.5 4.93449L15.3028 3.85353C16.5887 2.12215 18.6464 1 20.938 1C24.8257 1 28 4.19234 28 8.16515C28 9.79541 27.742 11.2992 27.2939 12.6942L27.2939 12.6942L27.2918 12.7007C26.2171 16.1269 24.0116 18.8967 21.6193 20.9679C19.2223 23.043 16.6943 24.3675 15.0748 24.9226L15.0747 24.9225L15.064 24.9263C14.9586 24.9638 14.7542 25 14.5 25C14.2458 25 14.0414 24.9638 13.936 24.9263L13.936 24.9263L13.9252 24.9226C12.3057 24.3675 9.77769 23.043 7.38073 20.9679C4.98839 18.8967 2.78291 16.1269 1.70816 12.7007L1.70818 12.7007L1.7061 12.6942C1.25805 11.2992 1 9.79541 1 8.16515C1 4.19234 4.17434 1 8.062 1C10.3536 1 12.4113 2.12215 13.6972 3.85353Z" fill="#F35383" stroke="white" stroke-width="2"/>
</svg>
