<svg width="26" height="26" viewBox="0 0 26 26" fill="none" xmlns="http://www.w3.org/2000/svg">
<path d="M17.8372 13.907H8.16278C7.66696 13.907 7.2558 13.4958 7.2558 13C7.2558 12.5042 7.66696 12.093 8.16278 12.093H17.8372C18.333 12.093 18.7442 12.5042 18.7442 13C18.7442 13.4958 18.333 13.907 17.8372 13.907Z" fill="#C5C5C5"/>
<path d="M13 18.7442C12.5042 18.7442 12.093 18.333 12.093 17.8372V8.16281C12.093 7.66699 12.5042 7.25583 13 7.25583C13.4958 7.25583 13.907 7.66699 13.907 8.16281V17.8372C13.907 18.333 13.4958 18.7442 13 18.7442Z" fill="#C5C5C5"/>
<path d="M16.6279 26H9.37209C2.80558 26 0 23.1944 0 16.6279V9.37209C0 2.80558 2.80558 0 9.37209 0H16.6279C23.1944 0 26 2.80558 26 9.37209V16.6279C26 23.1944 23.1944 26 16.6279 26ZM9.37209 1.81395C3.79721 1.81395 1.81395 3.79721 1.81395 9.37209V16.6279C1.81395 22.2028 3.79721 24.186 9.37209 24.186H16.6279C22.2028 24.186 24.186 22.2028 24.186 16.6279V9.37209C24.186 3.79721 22.2028 1.81395 16.6279 1.81395H9.37209Z" fill="#C5C5C5"/>
</svg>
