<svg width="29" height="26" viewBox="0 0 29 26" fill="none" xmlns="http://www.w3.org/2000/svg">
<path d="M14.4819 26C14.0642 26 13.6601 25.9461 13.3233 25.8249C8.1772 24.0601 0 17.7959 0 8.54093C0 3.82591 3.81243 0 8.50052 0C10.7772 0 12.9057 0.889119 14.4819 2.47876C16.058 0.889119 18.1865 0 20.4632 0C25.1513 0 28.9637 3.83938 28.9637 8.54093C28.9637 17.8093 20.7865 24.0601 15.6404 25.8249C15.3036 25.9461 14.8995 26 14.4819 26ZM8.50052 2.02073C4.93057 2.02073 2.02073 4.94404 2.02073 8.54093C2.02073 17.742 10.8715 22.8611 13.9834 23.9254C14.2259 24.0062 14.7513 24.0062 14.9938 23.9254C18.0922 22.8611 26.9565 17.7554 26.9565 8.54093C26.9565 4.94404 24.0466 2.02073 20.4767 2.02073C18.429 2.02073 16.5295 2.9772 15.3036 4.6342C14.9264 5.14611 14.0642 5.14611 13.687 4.6342C12.4342 2.96373 10.5482 2.02073 8.50052 2.02073Z" fill="#C5C5C5"/>
</svg>
