<svg width="20" height="20" viewBox="0 0 20 20" fill="none" xmlns="http://www.w3.org/2000/svg">
<path d="M7.00109 8.3811C8.3155 8.3811 9.3811 7.31553 9.3811 6.00109C9.3811 4.68666 8.3155 3.62109 7.00109 3.62109C5.68666 3.62109 4.62109 4.68666 4.62109 6.00109C4.62109 7.31553 5.68666 8.3811 7.00109 8.3811Z" fill="white"/>
<path d="M14.19 0H5.81C2.17 0 0 2.17 0 5.81V14.19C0 15.28 0.19 16.23 0.56 17.03C1.42 18.93 3.26 20 5.81 20H14.19C17.83 20 20 17.83 20 14.19V11.9V5.81C20 2.17 17.83 0 14.19 0ZM18.37 10.5C17.59 9.83 16.33 9.83 15.55 10.5L11.39 14.07C10.61 14.74 9.35 14.74 8.57 14.07L8.23 13.79C7.52 13.17 6.39 13.11 5.59 13.65L1.85 16.16C1.63 15.6 1.5 14.95 1.5 14.19V5.81C1.5 2.99 2.99 1.5 5.81 1.5H14.19C17.01 1.5 18.5 2.99 18.5 5.81V10.61L18.37 10.5Z" fill="white"/>
</svg>
