<svg width="23" height="26" viewBox="0 0 23 26" fill="none" xmlns="http://www.w3.org/2000/svg">
<path d="M20.1113 26C19.4897 26 18.8071 25.8186 18.1489 25.4437L12.2008 22.1665C11.8474 21.973 11.1526 21.973 10.7991 22.1665L4.85109 25.4437C3.64441 26.1088 2.41336 26.1814 1.47483 25.6251C0.536301 25.0809 0 23.9805 0 22.614V5.57488C0 2.50326 2.52305 0 5.61897 0H17.381C20.4769 0 23 2.50326 23 5.57488V22.614C23 23.9805 22.4637 25.0809 21.5252 25.6251C21.0986 25.8791 20.611 26 20.1113 26ZM11.4939 20.2074C12.0668 20.2074 12.6274 20.3284 13.0784 20.5823L19.0265 23.8595C19.6481 24.2102 20.221 24.2828 20.5866 24.0651C20.9523 23.8474 21.1595 23.3274 21.1595 22.614V5.57488C21.1595 3.50698 19.4531 1.81395 17.3688 1.81395H5.61897C3.53471 1.81395 1.8283 3.50698 1.8283 5.57488V22.614C1.8283 23.3274 2.03551 23.8595 2.40117 24.0651C2.76683 24.2707 3.32751 24.2102 3.96132 23.8595L9.90937 20.5823C10.3604 20.3284 10.921 20.2074 11.4939 20.2074Z" fill="white"/>
</svg>
