<svg width="26" height="27" viewBox="0 0 26 27" fill="none" xmlns="http://www.w3.org/2000/svg">
<path d="M15.9807 26.0143C14.388 26.0143 12.134 24.894 10.3524 19.5356L9.38052 16.6203L6.46514 15.6485C1.12026 13.8668 0 11.6128 0 10.0201C0 8.44095 1.12026 6.17342 6.46514 4.3783L17.9243 0.558607C20.7857 -0.399691 23.1747 -0.116251 24.6459 1.34144C26.117 2.79913 26.4005 5.20163 25.4422 8.06302L21.6225 19.5222C19.8274 24.894 17.5733 26.0143 15.9807 26.0143ZM7.0995 6.30839C3.34729 7.56363 2.01108 9.04832 2.01108 10.0201C2.01108 10.9919 3.34729 12.4766 7.0995 13.7184L10.5008 14.8521C10.7978 14.9466 11.0407 15.1896 11.1352 15.4865L12.269 18.8878C13.5107 22.64 15.0089 23.9762 15.9807 23.9762C16.9525 23.9762 18.4372 22.64 19.6924 18.8878L23.5121 7.42866C24.2005 5.3501 24.079 3.64946 23.2017 2.77214C22.3243 1.89482 20.6237 1.78685 18.5586 2.4752L7.0995 6.30839Z" fill="white"/>
<path d="M10.4333 16.2557C10.1768 16.2557 9.92034 16.1612 9.71788 15.9587C9.32646 15.5673 9.32646 14.9195 9.71788 14.528L14.5499 9.68257C14.9413 9.29115 15.5892 9.29115 15.9806 9.68257C16.372 10.074 16.372 10.7219 15.9806 11.1133L11.1486 15.9587C10.9596 16.1612 10.6897 16.2557 10.4333 16.2557Z" fill="white"/>
</svg>
