<svg width="25" height="25" viewBox="0 0 25 25" fill="none" xmlns="http://www.w3.org/2000/svg">
<path d="M9.63541 9.42709C11.4896 10.1042 13.5104 10.1042 15.3646 9.42709" stroke="white" stroke-width="1.5" stroke-linecap="round" stroke-linejoin="round"/>
<path d="M17.5208 2.08334H7.47918C5.26043 2.08334 3.45834 3.89584 3.45834 6.10418V20.7813C3.45834 22.6563 4.80209 23.4479 6.44793 22.5417L11.5313 19.7188C12.0729 19.4167 12.9479 19.4167 13.4792 19.7188L18.5625 22.5417C20.2083 23.4583 21.5521 22.6667 21.5521 20.7813V6.10418C21.5417 3.89584 19.7396 2.08334 17.5208 2.08334Z" stroke="white" stroke-width="1.5" stroke-linecap="round" stroke-linejoin="round"/>
<path d="M17.5208 2.08334H7.47918C5.26043 2.08334 3.45834 3.89584 3.45834 6.10418V20.7813C3.45834 22.6563 4.80209 23.4479 6.44793 22.5417L11.5313 19.7188C12.0729 19.4167 12.9479 19.4167 13.4792 19.7188L18.5625 22.5417C20.2083 23.4583 21.5521 22.6667 21.5521 20.7813V6.10418C21.5417 3.89584 19.7396 2.08334 17.5208 2.08334Z" stroke="white" stroke-width="1.5" stroke-linecap="round" stroke-linejoin="round"/>
</svg>
