<svg width="25" height="25" viewBox="0 0 25 25" fill="none" xmlns="http://www.w3.org/2000/svg">
<path d="M13.4271 6.125H5.32288C3.54163 6.125 2.08331 7.58332 2.08331 9.36457V21.1979C2.08331 22.7083 3.16664 23.3542 4.48956 22.6146L8.5833 20.3333C9.0208 20.0937 9.72915 20.0937 10.1562 20.3333L14.25 22.6146C15.5729 23.3542 16.6562 22.7083 16.6562 21.1979V9.36457C16.6666 7.58332 15.2083 6.125 13.4271 6.125Z" stroke="#BFC3C8" stroke-width="1.5" stroke-linecap="round" stroke-linejoin="round"/>
<path d="M16.6666 9.36457V21.1979C16.6666 22.7083 15.5833 23.3437 14.2604 22.6146L10.1667 20.3333C9.72916 20.0937 9.0208 20.0937 8.5833 20.3333L4.48956 22.6146C3.16664 23.3437 2.08331 22.7083 2.08331 21.1979V9.36457C2.08331 7.58332 3.54163 6.125 5.32288 6.125H13.4271C15.2083 6.125 16.6666 7.58332 16.6666 9.36457Z" stroke="#BFC3C8" stroke-width="1.5" stroke-linecap="round" stroke-linejoin="round"/>
<path d="M22.9166 5.32291V17.1563C22.9166 18.6667 21.8333 19.3021 20.5104 18.5729L16.6666 16.4271V9.36458C16.6666 7.58333 15.2083 6.12502 13.4271 6.12502H8.33331V5.32291C8.33331 3.54166 9.79163 2.08334 11.5729 2.08334H19.6771C21.4583 2.08334 22.9166 3.54166 22.9166 5.32291Z" stroke="#BFC3C8" stroke-width="1.5" stroke-linecap="round" stroke-linejoin="round"/>
</svg>
