<svg width="25" height="25" viewBox="0 0 25 25" fill="none" xmlns="http://www.w3.org/2000/svg">
<path d="M13.9687 21.6562L12.5 22.6042C11.1354 23.4479 9.2396 22.5 9.2396 20.8125V15.2396C9.2396 14.5 8.82294 13.5521 8.39585 13.0312L4.39583 8.82291C3.86458 8.29166 3.44794 7.35417 3.44794 6.71875V4.30208C3.44794 3.04166 4.39587 2.09375 5.55212 2.09375H19.4479C20.6042 2.09375 21.5521 3.04166 21.5521 4.19791V6.51041C21.5521 7.35416 21.0208 8.40625 20.5 8.92708" stroke="#1C1F2E" stroke-width="1.5" stroke-miterlimit="10" stroke-linecap="round" stroke-linejoin="round"/>
<path d="M17.7917 12.3854L14.1041 16.0729C13.9583 16.2187 13.8229 16.4896 13.7917 16.6875L13.5937 18.0937C13.5208 18.6041 13.875 18.9583 14.3854 18.8854L15.7916 18.6875C15.9896 18.6562 16.2708 18.5208 16.4063 18.375L20.0937 14.6875C20.7291 14.0521 21.0312 13.3125 20.0937 12.375C19.1666 11.4479 18.4271 11.75 17.7917 12.3854Z" stroke="#1C1F2E" stroke-width="1.5" stroke-miterlimit="10" stroke-linecap="round" stroke-linejoin="round"/>
<path d="M17.2709 12.9062C17.5834 14.0313 18.4583 14.9062 19.5833 15.2187" stroke="#1C1F2E" stroke-width="1.5" stroke-miterlimit="10" stroke-linecap="round" stroke-linejoin="round"/>
</svg>
