<svg width="25" height="25" viewBox="0 0 25 25" fill="none" xmlns="http://www.w3.org/2000/svg">
<path d="M21.6979 8.34375L14.875 2.88542C13.5417 1.82292 11.4583 1.8125 10.1354 2.875L3.3125 8.34375C2.33334 9.125 1.73959 10.6875 1.94792 11.9167L3.26042 19.7708C3.5625 21.5312 5.19792 22.9167 6.97917 22.9167H18.0208C19.7812 22.9167 21.4479 21.5 21.75 19.7604L23.0625 11.9062C23.25 10.6875 22.6563 9.125 21.6979 8.34375ZM13.2813 18.75C13.2813 19.1771 12.9271 19.5312 12.5 19.5312C12.0729 19.5312 11.7188 19.1771 11.7188 18.75V15.625C11.7188 15.1979 12.0729 14.8437 12.5 14.8437C12.9271 14.8437 13.2813 15.1979 13.2813 15.625V18.75Z" fill="#FF033E"/>
</svg>
