<svg width="25" height="25" viewBox="0 0 25 25" fill="none" xmlns="http://www.w3.org/2000/svg">
<path d="M12.6667 11.3229C12.5625 11.3125 12.4375 11.3125 12.3229 11.3229C9.84375 11.2396 7.875 9.20834 7.875 6.70834C7.875 4.15626 9.9375 2.08334 12.5 2.08334C15.0521 2.08334 17.125 4.15626 17.125 6.70834C17.1146 9.20834 15.1458 11.2396 12.6667 11.3229Z" stroke="#BFC3C8" stroke-width="1.5" stroke-linecap="round" stroke-linejoin="round"/>
<path d="M7.45831 15.1667C4.93748 16.8542 4.93748 19.6042 7.45831 21.2812C10.3229 23.1979 15.0208 23.1979 17.8854 21.2812C20.4062 19.5937 20.4062 16.8437 17.8854 15.1667C15.0312 13.2604 10.3333 13.2604 7.45831 15.1667Z" stroke="#BFC3C8" stroke-width="1.5" stroke-linecap="round" stroke-linejoin="round"/>
</svg>
